<?xml version="1.0" encoding="iso-8859-1"?>
<!-- Generator: Adobe Illustrator 19.0.0, SVG Export Plug-In . SVG Version: 6.00 Build 0)  -->
<svg version="1.1" id="Capa_1" xmlns="http://www.w3.org/2000/svg" xmlns:xlink="http://www.w3.org/1999/xlink" x="0px" y="0px"
	 viewBox="0 0 512 512" style="enable-background:new 0 0 512 512;" xml:space="preserve">
<g>
	<path style="fill:#57555C;" d="M94.999,250.507c-3.296,0-6.621-1.084-9.404-3.325l-37.837-30.498
		C37.108,208.114,31,195.341,31,181.645V136c0-8.291,6.709-15,15-15s15,6.709,15,15v45.645c0,4.57,2.036,8.818,5.581,11.675
		l37.852,30.513c6.445,5.2,7.456,14.634,2.256,21.094C103.729,248.603,99.379,250.507,94.999,250.507z"/>
	<path style="fill:#57555C;" d="M46,512c-8.291,0-15-6.709-15-15v-46.645c0-13.696,6.108-26.47,16.772-35.054l37.822-30.483
		c6.475-5.215,15.894-4.189,21.094,2.256c5.2,6.46,4.189,15.894-2.256,21.094l-37.837,30.498c-3.56,2.871-5.596,7.119-5.596,11.689
		V497C61,505.291,54.291,512,46,512z"/>
	<path style="fill:#57555C;" d="M76,331H15c-8.291,0-15-6.709-15-15s6.709-15,15-15h61c8.291,0,15,6.709,15,15S84.291,331,76,331z"
		/>
</g>
<g>
	<path style="fill:#3C3A41;" d="M417.001,250.507c-4.38,0-8.73-1.904-11.689-5.581c-5.2-6.46-4.189-15.894,2.256-21.094
		l37.837-30.498c3.56-2.871,5.596-7.119,5.596-11.689V136c0-8.291,6.709-15,15-15s15,6.709,15,15v45.645
		c0,13.696-6.108,26.47-16.772,35.054l-37.822,30.483C423.622,249.423,420.297,250.507,417.001,250.507z"/>
	<path style="fill:#3C3A41;" d="M466,512c-8.291,0-15-6.709-15-15v-46.645c0-4.57-2.036-8.818-5.581-11.675l-37.852-30.513
		c-6.445-5.2-7.456-14.634-2.256-21.094c5.186-6.445,14.604-7.471,21.094-2.256l37.837,30.498
		c10.65,8.571,16.758,21.344,16.758,35.04V497C481,505.291,474.291,512,466,512z"/>
	<path style="fill:#3C3A41;" d="M497,331h-61c-8.291,0-15-6.709-15-15s6.709-15,15-15h61c8.291,0,15,6.709,15,15
		S505.291,331,497,331z"/>
</g>
<path style="fill:#57555C;" d="M214.677,107.509c-4.717,0-9.36-2.212-12.275-6.357C188.397,81.273,181,57.909,181,33.578V15
	c0-8.291,6.709-15,15-15s15,6.709,15,15v18.578c0,18.105,5.508,35.493,15.923,50.288c4.775,6.782,3.149,16.143-3.618,20.903
	C220.668,106.615,217.665,107.509,214.677,107.509z"/>
<path style="fill:#3C3A41;" d="M297.323,107.509c-2.988,0-5.991-0.894-8.628-2.739c-6.768-4.761-8.394-14.121-3.618-20.903
	C295.492,69.071,301,51.684,301,33.578V15c0-8.291,6.709-15,15-15s15,6.709,15,15v18.578c0,24.331-7.397,47.695-21.401,67.573
	C306.684,105.297,302.04,107.509,297.323,107.509z"/>
<path style="fill:#57555C;" d="M331,136c0,4.2-0.3,8.399-1.199,12.599c-1.201,7.2-7.5,12.299-14.702,12.299H199.3
	c-8.099,1.201-15.899-4.199-17.399-12.299c-1.802-10.8-1.201-21.899,1.8-32.701C190.6,89.5,212.5,68.5,239.5,62.8
	c5.4-1.201,11.1-1.8,16.5-1.8c17.1,0,33.6,5.7,47.1,16.5C320.799,91.899,331,113.2,331,136z"/>
<path style="fill:#3C3A41;" d="M331,136c0,4.2-0.3,8.399-1.199,12.599c-1.201,7.2-7.5,12.299-14.702,12.299H256V61
	c17.1,0,33.6,5.7,47.1,16.5C320.799,91.899,331,113.2,331,136z"/>
<path style="fill:#FD3C65;" d="M445.901,360.399C430,432.7,372.7,491,300.399,506.899C285.7,510.2,271,512,256.3,512H256
	c-51.599,0-100.8-21.101-137.701-58.301c-47.699-47.399-67.2-115.499-52.2-182.1C77.5,220.6,109.3,177.4,152.5,150.7L256,151h103.5
	c12.299,7.8,23.699,16.8,34.2,27.299C441.4,225.7,460.901,293.8,445.901,360.399z"/>
<path style="fill:#E50027;" d="M445.901,360.399C430,432.7,372.7,491,300.399,506.899C285.7,510.2,271,512,256.3,512H256V151h103.5
	c12.299,7.8,23.699,16.8,34.2,27.299C441.4,225.7,460.901,293.8,445.901,360.399z"/>
<path style="fill:#3C3A41;" d="M346,331c-24.814,0-45-20.186-45-45s20.186-45,45-45s45,20.186,45,45S370.814,331,346,331z"/>
<g>
	<path style="fill:#57555C;" d="M166,331c-24.814,0-45-20.186-45-45s20.186-45,45-45s45,20.186,45,45S190.814,331,166,331z"/>
	<path style="fill:#57555C;" d="M181,421c-16.538,0-30-13.462-30-30s13.462-30,30-30s30,13.462,30,30S197.538,421,181,421z"/>
</g>
<path style="fill:#3C3A41;" d="M331,421c-16.538,0-30-13.462-30-30s13.462-30,30-30s30,13.462,30,30S347.538,421,331,421z"/>
<path style="fill:#57555C;" d="M359.5,151c-7.5,51-50.7,90-103.5,90c-53.101,0-96.301-39.3-103.5-90.3
	c18.001-11.4,37.8-20.099,59.101-24.6c14.7-3.3,29.7-4.799,44.399-4.799C292.899,121.3,328.9,131.499,359.5,151z"/>
<path style="fill:#3C3A41;" d="M359.5,151c-7.5,51-50.7,90-103.5,90V121.3C292.899,121.3,328.9,131.499,359.5,151z"/>
<g>
</g>
<g>
</g>
<g>
</g>
<g>
</g>
<g>
</g>
<g>
</g>
<g>
</g>
<g>
</g>
<g>
</g>
<g>
</g>
<g>
</g>
<g>
</g>
<g>
</g>
<g>
</g>
<g>
</g>
</svg>
